<?xml version="1.0" encoding="UTF-8"?><svg id="Capa_2" xmlns="http://www.w3.org/2000/svg" viewBox="0 0 870 590"><defs><style>.cls-1{fill:#f80200;}.cls-2{fill:#707070;}.cls-3{fill:#292929;}</style></defs><g id="Capa_1-2"><g><rect class="cls-2" x="65.5" width="739" height="25"/><rect class="cls-2" x="65.5" y="94" width="44" height="44"/><rect class="cls-3" x="135" y="94" width="44" height="44"/><rect class="cls-2" x="204.5" y="94" width="44" height="44"/><rect class="cls-2" x="274" y="94" width="44" height="44"/><rect class="cls-2" x="343.5" y="97" width="44" height="44"/><rect class="cls-2" x="413" y="97" width="44" height="44"/><rect class="cls-2" x="482.5" y="97" width="44" height="44"/><rect class="cls-2" x="552" y="97" width="44" height="44"/><rect class="cls-2" x="621.5" y="97" width="44" height="44"/><rect class="cls-2" x="691" y="97" width="44" height="44"/><rect class="cls-2" x="760.5" y="97" width="44" height="44"/><rect class="cls-2" x="66" y="163.17" width="44" height="44"/><rect class="cls-2" y="163.17" width="44" height="44"/><rect class="cls-2" x="135.5" y="163.17" width="44" height="44"/><rect class="cls-2" x="205" y="163.17" width="44" height="44"/><rect class="cls-3" x="274.5" y="163.17" width="44" height="44"/><rect class="cls-3" x="344" y="166.17" width="44" height="44"/><rect class="cls-3" x="413.5" y="166.17" width="44" height="44"/><rect class="cls-3" x="483" y="166.17" width="44" height="44"/><rect class="cls-2" x="552.5" y="166.17" width="44" height="44"/><rect class="cls-2" x="622" y="166.17" width="44" height="44"/><rect class="cls-2" x="691.5" y="166.17" width="44" height="44"/><rect class="cls-2" x="761" y="166.17" width="44" height="44"/><rect class="cls-2" x="826" y="166.17" width="44" height="44"/><rect class="cls-2" x="66" y="232.33" width="44" height="44"/><rect class="cls-2" y="232.33" width="44" height="44"/><rect class="cls-2" x="135.5" y="232.33" width="44" height="44"/><rect class="cls-2" x="205" y="232.33" width="44" height="44"/><rect class="cls-2" x="274.5" y="232.33" width="44" height="44"/><rect class="cls-3" x="344" y="235.33" width="44" height="44"/><rect class="cls-2" x="413.5" y="235.33" width="44" height="44"/><rect class="cls-2" x="483" y="235.33" width="44" height="44"/><rect class="cls-2" x="552.5" y="235.33" width="44" height="44"/><rect class="cls-2" x="622" y="235.33" width="44" height="44"/><rect class="cls-2" x="691.5" y="235.33" width="44" height="44"/><rect class="cls-2" x="761" y="235.33" width="44" height="44"/><rect class="cls-2" x="826" y="235.33" width="44" height="44"/><rect class="cls-2" x="66" y="301.5" width="44" height="44"/><rect class="cls-2" y="301.5" width="44" height="44"/><rect class="cls-2" x="135.5" y="301.5" width="44" height="44"/><rect class="cls-2" x="205" y="301.5" width="44" height="44"/><rect class="cls-3" x="274.5" y="301.5" width="44" height="44"/><rect class="cls-3" x="344" y="304.5" width="44" height="44"/><rect class="cls-2" x="413.5" y="304.5" width="44" height="44"/><rect class="cls-3" x="483" y="304.5" width="44" height="44"/><rect class="cls-3" x="552.5" y="304.5" width="44" height="44"/><rect class="cls-3" x="622" y="304.5" width="44" height="44"/><rect class="cls-2" x="691.5" y="304.5" width="44" height="44"/><rect class="cls-2" x="761" y="304.5" width="44" height="44"/><rect class="cls-2" x="826" y="304.5" width="44" height="44"/><rect class="cls-2" x="66" y="404.67" width="44" height="44"/><rect class="cls-2" y="404.67" width="44" height="44"/><rect class="cls-2" x="135.5" y="404.67" width="44" height="44"/><rect class="cls-2" x="205" y="404.67" width="44" height="44"/><rect class="cls-1" x="274.5" y="404.67" width="44" height="44"/><rect class="cls-1" x="344" y="407.67" width="44" height="44"/><rect class="cls-1" x="413.5" y="407.67" width="44" height="44"/><rect class="cls-2" x="483" y="407.67" width="44" height="44"/><rect class="cls-2" x="552.5" y="407.67" width="44" height="44"/><rect class="cls-2" x="622" y="407.67" width="44" height="44"/><rect class="cls-2" x="691.5" y="407.67" width="44" height="44"/><rect class="cls-2" x="761" y="407.67" width="44" height="44"/><rect class="cls-2" x="826" y="407.67" width="44" height="44"/><rect class="cls-2" x="66" y="543" width="44" height="44"/><rect class="cls-2" y="543" width="44" height="44"/><rect class="cls-3" x="135.5" y="543" width="44" height="44"/><rect class="cls-3" x="205" y="543" width="44" height="44"/><rect class="cls-3" x="274.5" y="543" width="44" height="44"/><rect class="cls-2" x="344" y="546" width="44" height="44"/><rect class="cls-2" x="413.5" y="546" width="44" height="44"/><rect class="cls-3" x="483" y="546" width="44" height="44"/><rect class="cls-3" x="552.5" y="546" width="44" height="44"/><rect class="cls-2" x="622" y="546" width="44" height="44"/><rect class="cls-2" x="691.5" y="546" width="44" height="44"/><rect class="cls-2" x="761" y="546" width="44" height="44"/><rect class="cls-2" x="826" y="546" width="44" height="44"/><rect class="cls-2" x="66" y="473.83" width="44" height="44"/><rect class="cls-2" y="473.83" width="44" height="44"/><rect class="cls-3" x="135.5" y="473.83" width="44" height="44"/><rect class="cls-3" x="205" y="473.83" width="44" height="44"/><rect class="cls-2" x="274.5" y="473.83" width="44" height="44"/><rect class="cls-2" x="344" y="476.83" width="44" height="44"/><rect class="cls-3" x="413.5" y="476.83" width="44" height="44"/><rect class="cls-3" x="483" y="476.83" width="44" height="44"/><rect class="cls-2" x="552.5" y="476.83" width="44" height="44"/><rect class="cls-2" x="622" y="476.83" width="44" height="44"/><rect class="cls-2" x="691.5" y="476.83" width="44" height="44"/><rect class="cls-2" x="761" y="476.83" width="44" height="44"/><rect class="cls-2" x="826" y="476.83" width="44" height="44"/></g></g></svg>